<svg width="25" height="25" viewBox="0 0 25 25" fill="none" xmlns="http://www.w3.org/2000/svg">
<path d="M20.8367 9.08203H11.8367C10.7321 9.08203 9.83667 9.97746 9.83667 11.082V20.082C9.83667 21.1866 10.7321 22.082 11.8367 22.082H20.8367C21.9412 22.082 22.8367 21.1866 22.8367 20.082V11.082C22.8367 9.97746 21.9412 9.08203 20.8367 9.08203Z" stroke="#472F01" stroke-width="2" stroke-linecap="round" stroke-linejoin="round"/>
<path d="M5.83667 15.082H4.83667C4.30624 15.082 3.79753 14.8713 3.42246 14.4962C3.04738 14.1212 2.83667 13.6125 2.83667 13.082V4.08203C2.83667 3.5516 3.04738 3.04289 3.42246 2.66782C3.79753 2.29274 4.30624 2.08203 4.83667 2.08203H13.8367C14.3671 2.08203 14.8758 2.29274 15.2509 2.66782C15.626 3.04289 15.8367 3.5516 15.8367 4.08203V5.08203" stroke="#472F01" stroke-width="2" stroke-linecap="round" stroke-linejoin="round"/>
</svg>
