<svg width="25" height="25" viewBox="0 0 25 25" fill="none" xmlns="http://www.w3.org/2000/svg">
<g clip-path="url(#clip0_69_440)">
<path d="M11.8367 4.08203H4.83667C4.30624 4.08203 3.79753 4.29274 3.42246 4.66782C3.04738 5.04289 2.83667 5.5516 2.83667 6.08203V20.082C2.83667 20.6125 3.04738 21.1212 3.42246 21.4962C3.79753 21.8713 4.30624 22.082 4.83667 22.082H18.8367C19.3671 22.082 19.8758 21.8713 20.2509 21.4962C20.626 21.1212 20.8367 20.6125 20.8367 20.082V13.082" stroke="#472F01" stroke-width="2" stroke-linecap="round" stroke-linejoin="round"/>
<path d="M19.3367 2.58201C19.7345 2.18419 20.2741 1.96069 20.8367 1.96069C21.3993 1.96069 21.9388 2.18419 22.3367 2.58201C22.7345 2.97984 22.958 3.5194 22.958 4.08201C22.958 4.64462 22.7345 5.18419 22.3367 5.58201L12.8367 15.082L8.83667 16.082L9.83667 12.082L19.3367 2.58201Z" stroke="#472F01" stroke-width="2" stroke-linecap="round" stroke-linejoin="round"/>
</g>
<defs>
<clipPath id="clip0_69_440">
<rect width="24" height="24" fill="white" transform="translate(0.83667 0.0820312)"/>
</clipPath>
</defs>
</svg>
