<svg width="25" height="25" viewBox="0 0 25 25" fill="none" xmlns="http://www.w3.org/2000/svg">
<path d="M6.83667 9.08203V2.08203H18.8367V9.08203" stroke="#472F01" stroke-width="2" stroke-linecap="round" stroke-linejoin="round"/>
<path d="M6.83667 18.082H4.83667C4.30624 18.082 3.79753 17.8713 3.42246 17.4962C3.04738 17.1212 2.83667 16.6125 2.83667 16.082V11.082C2.83667 10.5516 3.04738 10.0429 3.42246 9.66782C3.79753 9.29275 4.30624 9.08203 4.83667 9.08203H20.8367C21.3671 9.08203 21.8758 9.29275 22.2509 9.66782C22.626 10.0429 22.8367 10.5516 22.8367 11.082V16.082C22.8367 16.6125 22.626 17.1212 22.2509 17.4962C21.8758 17.8713 21.3671 18.082 20.8367 18.082H18.8367" stroke="#472F01" stroke-width="2" stroke-linecap="round" stroke-linejoin="round"/>
<path d="M18.8367 14.082H6.83667V22.082H18.8367V14.082Z" stroke="#472F01" stroke-width="2" stroke-linecap="round" stroke-linejoin="round"/>
</svg>
