<svg width="25" height="25" viewBox="0 0 25 25" fill="none" xmlns="http://www.w3.org/2000/svg">
<path d="M3.83667 6.08203H5.83667H21.8367" stroke="#472F01" stroke-width="2" stroke-linecap="round" stroke-linejoin="round"/>
<path d="M19.8367 6.08203V20.082C19.8367 20.6125 19.626 21.1212 19.2509 21.4962C18.8758 21.8713 18.3671 22.082 17.8367 22.082H7.83667C7.30624 22.082 6.79753 21.8713 6.42246 21.4962C6.04738 21.1212 5.83667 20.6125 5.83667 20.082V6.08203M8.83667 6.08203V4.08203C8.83667 3.5516 9.04738 3.04289 9.42246 2.66782C9.79753 2.29274 10.3062 2.08203 10.8367 2.08203H14.8367C15.3671 2.08203 15.8758 2.29274 16.2509 2.66782C16.626 3.04289 16.8367 3.5516 16.8367 4.08203V6.08203" stroke="#472F01" stroke-width="2" stroke-linecap="round" stroke-linejoin="round"/>
<path d="M10.8367 11.082V17.082" stroke="#472F01" stroke-width="2" stroke-linecap="round" stroke-linejoin="round"/>
<path d="M14.8367 11.082V17.082" stroke="#472F01" stroke-width="2" stroke-linecap="round" stroke-linejoin="round"/>
</svg>
